<?xml version="1.0" encoding="UTF-8"?>
<svg id="Capa_2" data-name="Capa 2" xmlns="http://www.w3.org/2000/svg" viewBox="0 0 57.67 54.04">
  <defs>
    <style>
      .cls-1 {
        fill: #490011;
      }
    </style>
  </defs>
  <g id="Capa_1-2" data-name="Capa 1">
    <g>
      <path class="cls-1" d="M35.5,17.39v-4.23h6.81V0H14.01v13.15h6.81v4.23H0v36.65h57.67V17.39h-22.16ZM15.51,11.65V1.5h25.31v10.16H15.51ZM22.32,13.15h11.69v4.23h-11.69v-4.23ZM56.17,52.54H1.5V18.88h54.67v33.66Z"/>
      <path class="cls-1" d="M14.14,35.71c0,8.1,6.59,14.7,14.7,14.7s14.7-6.59,14.7-14.7-6.59-14.7-14.7-14.7-14.7,6.59-14.7,14.7ZM42.03,35.71c0,7.28-5.92,13.2-13.2,13.2s-13.2-5.92-13.2-13.2,5.92-13.2,13.2-13.2,13.2,5.92,13.2,13.2Z"/>
    </g>
  </g>
</svg>