<?xml version="1.0" encoding="UTF-8"?>
<svg id="Capa_2" data-name="Capa 2" xmlns="http://www.w3.org/2000/svg" viewBox="0 0 183.4 72.95">
  <defs>
    <style>
      .cls-1 {
        fill: #f5a80a;
      }

      .cls-2 {
        fill: #490011;
      }
    </style>
  </defs>
  <g id="Capa_1-2" data-name="Capa 1">
    <g>
      <g>
        <path class="cls-1" d="M6.9,62.57c.17.37.25.75.25,1.13s-.02.7-.05.94c-.03.25-.09.49-.15.72-.16.52-.38.93-.66,1.21-.19-.97-.4-1.59-.63-1.88-.23-.29-.46-.48-.68-.58-.23-.1-.47-.15-.73-.15s-.46.03-.63.07c-.16.05-.3.12-.42.21-.27.21-.4.44-.4.7s.06.49.2.68.3.37.52.53c.22.17.46.33.73.48l.84.48c.72.41,1.22.74,1.49,1.01.53.53.79,1.09.79,1.67,0,.77-.26,1.41-.79,1.94-.66.67-1.65,1.01-2.97,1.01-1.2,0-2.11-.28-2.71-.84-.17-.16-.3-.32-.37-.49.05-.47.26-.91.63-1.32.36-.4.7-.63,1.04-.69-.02.08-.04.2-.04.36s.05.36.14.6c.09.24.23.46.4.67.39.47.84.71,1.33.71s.85-.11,1.09-.34c.23-.22.35-.48.35-.77s-.07-.53-.2-.72c-.13-.19-.3-.37-.52-.54-.21-.17-.46-.33-.73-.49l-.84-.48c-.72-.42-1.21-.79-1.48-1.08-.54-.6-.8-1.25-.8-1.95,0-.74.31-1.34.94-1.8.59-.44,1.33-.65,2.22-.65l1.65.11c.4,0,.68-.05.83-.14s.29-.21.39-.33Z"/>
        <path class="cls-1" d="M9.88,72.56c.29-.98.43-2.68.43-5.08,0-1.69-.15-2.85-.45-3.49-.08-.16-.16-.31-.25-.45l-.31-.43h3.32c-.27,1.03-.41,2.61-.41,4.75s.14,3.7.43,4.69h-2.76ZM12.42,60.6c-.13.21-.28.38-.46.52-.18.14-.39.21-.62.21s-.44-.07-.62-.21c-.18-.14-.33-.31-.46-.52-.26-.42-.38-.87-.38-1.35,0-.57.26-.96.79-1.15.19-.07.41-.1.68-.1.74,0,1.2.26,1.38.79.06.15.08.32.08.5s-.03.4-.1.64c-.07.24-.17.47-.3.67Z"/>
        <path class="cls-1" d="M15.12,72.56c.29-.98.43-2.68.43-5.08,0-1.71-.15-2.87-.45-3.5-.07-.16-.16-.3-.25-.44l-.31-.43h3.24c-.09.31-.16.6-.19.88l-.08.67c.75-1.16,1.71-1.74,2.88-1.74.75,0,1.34.29,1.77.88.41.57.62,1.35.62,2.33v1c0,1.71.02,2.76.05,3.14s.06.67.08.87.04.38.07.53c.04.29.11.59.2.88h-2.74c.29-.98.43-2.68.43-5.08,0-.96-.06-1.62-.18-1.97s-.27-.61-.43-.76c-.17-.15-.39-.23-.66-.23-.51,0-.96.2-1.38.6-.36.34-.63.78-.81,1.31-.01.17-.02.34-.02.52v.53c0,2.4.14,4.09.43,5.08h-2.68Z"/>
      </g>
      <g>
        <path class="cls-2" d="M35.38,59.66v3.17c0,3.24.04,5.24.11,5.99.08.75.15,1.29.22,1.61.07.33.18.62.32.87.22.42.65.86,1.29,1.33h-7.76c.81-.5,1.33-.93,1.58-1.3.47-.69.7-1.59.7-2.69-.01-2.71-.02-5.17-.02-7.38v-8.03c0-1.52-.24-2.62-.72-3.3-.18-.24-.4-.48-.66-.7h11.51c.69.25,1.17,1.1,1.42,2.57.07.41.11.81.11,1.19,0,.8-.12,1.43-.35,1.9l-.83-1.65c-.55-1.08-1.34-1.81-2.37-2.17-.57-.2-1.21-.31-1.93-.31s-1.22.02-1.53.07c-.31.05-.54.16-.7.33-.27.3-.4.86-.4,1.69s.02,1.41.06,1.73.14.58.29.79c.32.4.98.6,2,.6h4.81c-.23.59-.48,1.01-.72,1.25-.49.49-1.15.73-1.99.73-.33,0-.64-.04-.93-.11-.55-.13-1.04-.2-1.45-.2s-.76.04-1.03.11c-.27.08-.48.2-.63.36-.27.29-.4.8-.4,1.55Z"/>
        <path class="cls-2" d="M52.04,58.1c-1.18,0-1.77.7-1.77,2.1,0,5.79.1,9.21.29,10.24.11.62.25,1.09.43,1.39l.46.81h-5.43c.33-.78.52-1.42.57-1.94.06-.52.1-1.08.15-1.67.08-1.2.12-2.82.12-4.85,0-2.46-.04-4.7-.12-6.73l-.17-4.21c-.04-1.06-.13-1.8-.28-2.22-.22-.66-.59-1.26-1.1-1.79h8.09c2.47,0,4.25.25,5.36.73,1.16.51,1.74,1.38,1.74,2.62,0,1.08-.4,2.1-1.21,3.04-.76.88-1.74,1.58-2.97,2.1.15,3.92,1.38,7.68,3.69,11.28.99,1.56,2,2.77,3.03,3.64h-5.74c-1-1.37-1.92-4.14-2.77-8.31-.29-1.45-.47-2.65-.56-3.61-.09-.96-.16-1.54-.21-1.74-.06-.2-.15-.36-.27-.48-.24-.27-.69-.4-1.33-.4ZM55.57,55.37c.28-.3.48-.63.6-.97s.18-.68.18-1-.04-.64-.13-.96-.26-.6-.51-.85c-.56-.55-1.54-.83-2.94-.83-.52,0-.94.02-1.26.06-.32.04-.57.15-.76.34-.32.31-.47,1.09-.47,2.34,0,1.1.12,1.81.35,2.11.42.54,1.05.81,1.9.81s1.5-.1,1.95-.3c.45-.2.82-.45,1.1-.75Z"/>
        <path class="cls-2" d="M71.89,72.95c-2.71,0-4.76-1.27-6.14-3.82-1.33-2.46-1.99-5.98-1.99-10.56s1.46-7.76,4.39-9c1.03-.43,2.27-.64,3.73-.64,4.18,0,6.74,1.86,7.67,5.57.31,1.19.46,2.73.46,4.61s-.16,3.71-.49,5.49-.83,3.29-1.5,4.54c-1.38,2.55-3.42,3.82-6.14,3.82ZM71.92,71.42c1.96,0,3.22-2.39,3.79-7.16.19-1.61.29-3.51.29-5.69,0-5.41-1.37-8.11-4.12-8.11s-4.12,2.7-4.12,8.11c0,6.38.82,10.4,2.46,12.07.51.52,1.07.78,1.68.78Z"/>
        <path class="cls-2" d="M87.46,55.98c-.02,1.06-.03,2.27-.03,3.63,0,1.93.04,4.13.11,6.62.07,2.48.13,3.9.17,4.24s.09.64.15.89c.1.42.26.85.47,1.29h-4.1c.31-.62.49-1.23.56-1.83s.12-1.19.16-1.78c.08-1.2.12-2.82.12-4.85,0-2.46-.04-4.7-.12-6.73l-.17-4.21c-.06-1.55-.31-2.65-.73-3.3-.17-.24-.39-.48-.64-.7h4.76c.6,1.39,1.24,2.76,1.91,4.13l2.08,4.07,4.47,8.22c0-.64.02-1.33.02-2.07v-2.39c0-5.1-.31-8.78-.93-11.05-.12-.42-.26-.72-.4-.92l4.61-.02c-.51,1.02-.83,3.89-.96,8.61-.02.73-.03,1.44-.03,2.11l.02,1.29v6.24c0,2.64.02,4.37.06,5.17h-2.48l-4.44-8.26-4.62-8.4Z"/>
        <path class="cls-2" d="M101.88,56.11c-.25-.59-.37-1.29-.37-2.1s.03-1.47.09-1.98.14-.98.24-1.4c.24-.94.55-1.41.9-1.41h13.48c.59,0,.99.88,1.19,2.63.05.49.08.99.08,1.51,0,1.22-.13,2.14-.4,2.74-.88-2.72-2.02-4.47-3.41-5.23-.32-.18-.63-.28-.93-.28s-.55.08-.72.24c-.17.16-.32.41-.43.76-.18.61-.28,1.35-.28,2.2v5.74l.02,4.68v4.44c0,1,.13,1.74.39,2.21.26.47.53.83.8,1.08.27.24.59.47.96.69h-7.82c.73-.6,1.2-1.1,1.41-1.48.38-.7.57-1.54.57-2.49v-13.79c0-1.6-.06-2.63-.18-3.1s-.27-.78-.44-.93c-.17-.16-.41-.24-.72-.24s-.62.09-.93.27c-.32.18-.63.41-.93.7-.3.29-.59.63-.86,1.01s-.52.78-.74,1.19c-.44.81-.76,1.59-.96,2.34Z"/>
        <path class="cls-2" d="M131.67,66.98c.28.38.41.92.41,1.64s-.03,1.28-.09,1.71c-.06.42-.16.81-.29,1.16-.31.78-.71,1.16-1.21,1.16h-12.39c.79-.42,1.3-.82,1.56-1.21.48-.72.72-1.64.72-2.75,0-2.72-.02-5.19-.02-7.39v-8.05c0-1.52-.24-2.62-.72-3.3-.18-.24-.4-.48-.66-.7h11.51c.69.25,1.17,1.1,1.42,2.57.07.41.11.81.11,1.19,0,.8-.12,1.43-.35,1.9l-.83-1.65c-.55-1.08-1.34-1.81-2.37-2.17-.57-.2-1.21-.31-1.93-.31s-1.22.02-1.53.07c-.31.05-.54.16-.7.33-.27.3-.4.86-.4,1.69s.02,1.41.06,1.73.14.58.29.79c.32.4.98.6,2,.6h4.81c-.23.59-.47,1.01-.72,1.25-.49.49-1.15.73-1.99.73-.33,0-.64-.04-.93-.11-.55-.13-1.04-.2-1.45-.2s-.76.04-1.03.11c-.27.08-.48.2-.63.36-.27.29-.4.8-.4,1.55v7.3c0,1.92.11,3.06.32,3.41.21.36.47.57.78.64s.82.1,1.53.1,1.36-.1,1.94-.31,1.07-.49,1.46-.86c.39-.37.72-.8.97-1.31.26-.5.51-1.06.75-1.66Z"/>
        <path class="cls-2" d="M141.1,58.1c-1.18,0-1.77.7-1.77,2.1,0,5.79.1,9.21.29,10.24.11.62.26,1.09.43,1.39l.46.81h-5.43c.33-.78.52-1.42.57-1.94s.1-1.08.15-1.67c.08-1.2.12-2.82.12-4.85,0-2.46-.04-4.7-.12-6.73l-.17-4.21c-.04-1.06-.13-1.8-.27-2.22-.23-.66-.59-1.26-1.1-1.79h8.09c2.47,0,4.25.25,5.36.73,1.16.51,1.74,1.38,1.74,2.62,0,1.08-.4,2.1-1.21,3.04-.75.88-1.74,1.58-2.97,2.1.15,3.92,1.38,7.68,3.69,11.28.99,1.56,2,2.77,3.03,3.64h-5.74c-1-1.37-1.92-4.14-2.77-8.31-.29-1.45-.47-2.65-.56-3.61-.09-.96-.16-1.54-.21-1.74-.06-.2-.15-.36-.27-.48-.24-.27-.69-.4-1.33-.4ZM144.62,55.37c.28-.3.48-.63.6-.97.12-.35.18-.68.18-1s-.04-.64-.13-.96c-.09-.32-.26-.6-.51-.85-.56-.55-1.54-.83-2.94-.83-.52,0-.94.02-1.26.06-.32.04-.57.15-.76.34-.32.31-.47,1.09-.47,2.34,0,1.1.12,1.81.35,2.11.42.54,1.05.81,1.9.81s1.5-.1,1.95-.3c.45-.2.82-.45,1.1-.75Z"/>
        <path class="cls-2" d="M163.3,72.64c.13-.64.2-1.16.2-1.54s0-.67-.02-.86c-.02-.19-.04-.4-.06-.62-.03-.22-.06-.46-.09-.73-.04-.27-.07-.58-.1-.94-.23-2.44-1.07-4.44-2.49-6.01-.63-.69-1.32-1.22-2.05-1.58-.73-.36-1.34-.54-1.81-.54s-.84.03-1.09.09c-.57,1.71-.86,3.5-.86,5.37,0,1.65.09,2.89.26,3.7.28,1.22.7,2.45,1.27,3.69h-4.58c.24-.61.37-1.9.37-3.86s.15-3.8.44-5.51c.3-1.71.68-3.23,1.16-4.57.47-1.34,1-2.51,1.59-3.51.59-1,1.17-1.88,1.76-2.63.59-.75,1.14-1.39,1.66-1.93.52-.54.95-1.01,1.3-1.42h4.82c-.44.5-.66,1.2-.66,2.1,0,.41.07,1.08.2,2l.38,2.79c1.4,9.63,2.65,15.14,3.75,16.53h-5.34ZM156.4,58.27c.4-.15.82-.23,1.25-.23s.83.03,1.19.09.7.16,1.05.31c.74.29,1.37.74,1.87,1.36-.5-2.62-.81-4.22-.92-4.8l-.54-2.68-.87,1.04c-1.22,1.47-2.23,3.11-3.03,4.91Z"/>
        <path class="cls-2" d="M173.89,64.53c-.13,1.06-.2,1.9-.2,2.53s.08,1.21.23,1.74c.15.53.37.99.66,1.38.61.83,1.39,1.24,2.33,1.24,1.8,0,2.69-.99,2.69-2.97,0-1.59-.92-3.28-2.77-5.06l-1.59-1.55c-1.4-1.35-2.35-2.43-2.86-3.24-1.01-1.61-1.52-3.21-1.52-4.8,0-1.3.42-2.38,1.25-3.26,1.01-1.07,2.46-1.61,4.36-1.61.74,0,1.31.04,1.68.11.7.13,1.17.2,1.41.2.59,0,1.05-.18,1.38-.55.12-.13.26-.31.4-.52.74.42,1.12,1.95,1.12,4.61,0,1.69-.17,2.94-.51,3.75-.11.28-.24.45-.38.52-.16-1.54-.66-2.92-1.5-4.13-.98-1.43-2.11-2.14-3.4-2.14-1.1,0-1.78.5-2.04,1.52-.07.29-.11.64-.11,1.06s.13.91.38,1.45c.25.54.59,1.08,1,1.61.41.54.89,1.07,1.43,1.61,1.63,1.67,2.72,2.81,3.25,3.4s1.01,1.2,1.43,1.84c.92,1.42,1.38,2.79,1.38,4.12,0,1.6-.62,2.93-1.87,3.98-1.28,1.07-2.94,1.61-4.96,1.61-1.67,0-3.11-.42-4.31-1.25-1.33-.92-1.99-2.13-1.99-3.64.4-1.42,1.27-2.46,2.6-3.12.36-.18.69-.32,1.01-.4Z"/>
      </g>
      <g>
        <path class="cls-2" d="M21.07,58.65c-2.78,0-5.27-.82-7.47-2.45-2.21-1.63-3.61-4-4.21-7.11-3.32-.93-5.72-2.63-7.19-5.11-1.47-2.48-2.21-5.35-2.21-8.62s.58-6.32,1.76-9.64c1.17-3.32,2.82-6.41,4.94-9.27,2.12-2.86,4.66-5.17,7.6-6.94,2.94-1.77,6.18-2.65,9.72-2.65,2.23,0,4.02.53,5.35,1.59,1.33,1.06,2.3,2.42,2.9,4.08.6,1.66.9,3.36.9,5.11,0,.54-.03,1.08-.08,1.59-.05.52-.14,1.05-.25,1.59.65-.33,1.32-.65,2-.98.68-.33,1.37-.63,2.08-.9l1.14-.49c.93-2.23,1.91-4.42,2.94-6.58,1.03-2.15,2.21-4.15,3.51-6,1.09-1.52,2.41-2.89,3.96-4.08,1.55-1.2,3.25-1.8,5.11-1.8,1.69,0,2.89.37,3.59,1.1.71.74,1.06,1.65,1.06,2.74,0,1.53-.5,2.97-1.51,4.33-1.01,1.36-2.3,2.63-3.88,3.8-1.58,1.17-3.28,2.26-5.11,3.27-1.83,1.01-3.58,1.89-5.27,2.65-1.09,3.27-2.22,6.55-3.39,9.84-1.17,3.3-2.6,6.4-4.29,9.31-1.69,2.91-3.92,5.49-6.7,7.72-2.07,1.69-4.32,2.94-6.74,3.76-2.42.82-4.75,1.23-6.98,1.23-.38,0-.75-.01-1.1-.04-.35-.03-.69-.07-1.02-.12.44,2.18,1.36,4.04,2.78,5.6,1.42,1.55,3.57,2.33,6.45,2.33.87,0,1.69-.12,2.45-.37.76-.25,1.63-.69,2.61-1.35.05-.05.11-.08.16-.08.16,0,.25.16.25.49,0,.38-.31.76-.94,1.14-.63.38-1.4.69-2.33.94-.93.25-1.8.37-2.61.37ZM9.23,47.87c-.05-.27-.08-.54-.08-.82v-.74c0-3.48.95-6.7,2.86-9.64,1.91-2.94,4.48-5.64,7.72-8.09,3.24-2.45,6.85-4.68,10.82-6.7.33-1.25.49-2.53.49-3.84,0-1.58-.22-3.13-.65-4.66-.44-1.52-1.18-2.8-2.25-3.84-1.06-1.03-2.52-1.55-4.37-1.55-2.83,0-5.49.9-7.96,2.7-2.48,1.8-4.64,4.13-6.49,6.98-1.85,2.86-3.31,5.94-4.37,9.23-1.06,3.3-1.59,6.41-1.59,9.35,0,2.78.44,5.22,1.31,7.31.87,2.1,2.4,3.53,4.57,4.29ZM12.09,48.36h.33c1.8,0,3.85-.52,6.17-1.55,2.31-1.04,4.78-2.91,7.39-5.64,2.72-2.83,4.91-6.09,6.58-9.76,1.66-3.68,3.25-7.42,4.78-11.23l-4.98,2.61c-1.04,3.32-2.79,6.53-5.27,9.64-2.48,3.1-5.13,5.69-7.96,7.76-.38.27-.74.41-1.06.41-.27,0-.41-.08-.41-.25s.05-.3.16-.41c2.4-1.8,4.76-4.08,7.11-6.86,2.34-2.78,4.03-5.77,5.06-8.99-3.1,1.8-6.02,3.85-8.74,6.17-2.72,2.32-4.94,4.82-6.66,7.51-1.72,2.7-2.57,5.57-2.57,8.62v.98c0,.33.03.65.08.98ZM43.05,16.26c2.12-1.03,4.22-2.19,6.29-3.47,2.07-1.28,3.78-2.67,5.15-4.17,1.36-1.5,2.04-3.06,2.04-4.7,0-.76-.18-1.43-.53-2-.35-.57-.99-.86-1.92-.86-1.04,0-2.03.34-2.98,1.02-.95.68-1.78,1.48-2.49,2.41-.71.93-1.31,1.83-1.8,2.7-.71,1.36-1.38,2.82-2,4.37-.63,1.55-1.21,3.12-1.76,4.7Z"/>
        <path class="cls-2" d="M39.23,47.13c-1.68,0-2.51-.95-2.51-2.85,0-1.09.32-2.39.95-3.91.63-1.52,1.59-3.11,2.85-4.79.91-1.13,2.02-2.34,3.33-3.64,1.31-1.29,2.75-2.53,4.32-3.7,1.56-1.18,3.16-2.14,4.79-2.89,1.63-.75,3.22-1.12,4.76-1.12.68,0,1.16.1,1.43.31.27.2.45.42.54.65.09.18.1.32.03.41-.07.09-.15.11-.24.07-.18-.09-.54-.14-1.09-.14-1.63,0-3.57.78-5.81,2.34-2.24,1.56-4.45,3.59-6.63,6.08-1.54,1.72-2.81,3.41-3.81,5.06-1,1.65-1.65,3.02-1.97,4.11-.09.36-.14.68-.14.95,0,.64.25.95.75.95.32,0,.75-.15,1.29-.44.54-.29,1.25-.8,2.11-1.53,1.36-1.18,2.71-2.56,4.04-4.15,1.34-1.59,2.66-3.21,3.98-4.86,1.31-1.65,2.59-3.18,3.84-4.59,1.25-1.4,2.44-2.47,3.57-3.19,1.45-.95,2.46-1.5,3.02-1.63.57-.14,1.03-.23,1.39-.27-.23.27-.73.91-1.5,1.9-.77,1-1.59,2.05-2.45,3.16-.86,1.11-1.56,2.03-2.11,2.75-.82,1.18-1.69,2.45-2.62,3.81-.93,1.36-1.77,2.64-2.51,3.84-.75,1.2-1.26,2.19-1.53,2.96-.23.77-.34,1.34-.34,1.7,0,.73.29,1.09.88,1.09.41,0,.89-.17,1.46-.51.57-.34,1.14-.74,1.73-1.19.77-.63,1.5-1.3,2.17-2.01.68-.7,1.38-1.48,2.11-2.34.18,0,.27.14.27.41,0,.41-.09.73-.27.95-.59.68-1.3,1.43-2.14,2.24-.84.82-1.67,1.54-2.48,2.17-.59.5-1.27.93-2.04,1.29-.77.36-1.52.54-2.24.54-1.04,0-1.77-.25-2.17-.75-.41-.5-.61-1.13-.61-1.9,0-.91.2-1.89.61-2.96.41-1.06.86-2.07,1.36-3.02-.59.73-1.34,1.6-2.24,2.62-.91,1.02-1.72,1.87-2.45,2.55-1,.91-1.95,1.71-2.85,2.41-.91.7-1.86,1.05-2.85,1.05Z"/>
        <path class="cls-2" d="M60.84,47.34c-1.04,0-1.78-.27-2.21-.82-.43-.54-.65-1.22-.65-2.04s.16-1.69.48-2.62c.32-.93.66-1.78,1.02-2.55.82-1.36,1.71-2.73,2.68-4.11.97-1.38,2.03-2.82,3.16-4.32,1.22-1.63,2.63-3.4,4.21-5.3,1.59-1.9,3.3-3.77,5.13-5.61,1.84-1.84,3.77-3.45,5.81-4.86,2.04-1.4,4.12-2.42,6.25-3.06.41-.14.89-.25,1.46-.34.57-.09,1.14-.14,1.73-.14.5,0,.99.03,1.46.1.48.07.92.19,1.33.37.36.18.72.42,1.09.71.36.3.59.71.68,1.26-.45-.41-1-.71-1.63-.92-.64-.2-1.4-.31-2.31-.31-1.81,0-3.49.4-5.03,1.19-1.54.79-3,1.84-4.38,3.13-1.38,1.29-2.71,2.7-3.98,4.21-1.27,1.52-2.54,2.98-3.81,4.38-1.81,2.04-3.51,4.08-5.1,6.12-1.59,2.04-2.85,3.9-3.81,5.57.91-1.13,1.93-2.33,3.06-3.6,1.13-1.27,2.24-2.46,3.33-3.57,1.09-1.11,1.99-1.98,2.72-2.62,1-.91,1.97-1.64,2.92-2.21.95-.57,1.93-.89,2.92-.99,1.63-.09,2.45.86,2.45,2.85,0,1.04-.31,2.32-.92,3.84-.61,1.52-1.57,3.14-2.89,4.86-.86,1.13-1.96,2.34-3.3,3.64-1.34,1.29-2.79,2.53-4.35,3.7-1.56,1.18-3.16,2.14-4.79,2.89-1.63.75-3.22,1.12-4.76,1.12ZM61.45,46.39c1.72-.14,3.54-1.04,5.47-2.72,1.93-1.68,3.95-3.71,6.08-6.12,1.59-1.77,2.91-3.48,3.98-5.13,1.06-1.65,1.76-3,2.07-4.04.04-.14.07-.32.07-.54,0-.36-.09-.69-.27-.99-.18-.29-.48-.44-.88-.44-.36,0-.85.16-1.46.48-.61.32-1.37.86-2.28,1.63-.77.64-1.8,1.57-3.09,2.82-1.29,1.25-2.59,2.59-3.91,4.04-.41.45-.99,1.09-1.73,1.9-.75.82-1.52,1.72-2.31,2.72-.79,1-1.46,1.97-2.01,2.92-.54.95-.82,1.79-.82,2.51,0,.32.11.56.34.71.23.16.48.24.75.24Z"/>
        <path class="cls-2" d="M83.13,47.41c-1.31,0-2.25-.33-2.82-.99-.57-.66-.85-1.48-.85-2.48,0-1.27.37-2.76,1.12-4.49.75-1.72,1.76-3.47,3.02-5.23,1.27-1.77,2.7-3.41,4.28-4.93,1.59-1.52,3.21-2.74,4.86-3.67,1.65-.93,3.25-1.39,4.79-1.39,1.13,0,1.95.3,2.45.88.5.59.75,1.36.75,2.31,0,1.27-.36,2.78-1.09,4.52-.73,1.74-1.71,3.51-2.96,5.3-1.25,1.79-2.63,3.46-4.15,5-1.52,1.54-3.09,2.79-4.72,3.74-1.63.95-3.19,1.43-4.69,1.43ZM83.95,46.11c.95,0,2.1-.49,3.43-1.46,1.34-.97,2.71-2.23,4.11-3.77,1.4-1.54,2.71-3.18,3.91-4.93,1.2-1.74,2.17-3.4,2.92-4.96.75-1.56,1.12-2.84,1.12-3.84,0-1.09-.52-1.63-1.56-1.63-.86,0-1.94.51-3.23,1.53-1.29,1.02-2.63,2.32-4.01,3.91-1.38,1.59-2.68,3.26-3.91,5.03-1.22,1.77-2.21,3.44-2.96,5.03-.75,1.59-1.12,2.83-1.12,3.74s.43,1.36,1.29,1.36Z"/>
        <path class="cls-2" d="M106.17,47.2c-1.13,0-1.94-.29-2.41-.88-.48-.59-.71-1.31-.71-2.17,0-.54.07-1.09.2-1.63.27-1.36.95-2.79,2.04-4.28,1.09-1.5,2.38-2.99,3.87-4.49,1.5-1.5,3.02-2.85,4.59-4.08,1.56-1.22,2.96-2.24,4.18-3.06-.54.09-1.25.14-2.11.14-1,0-2.04-.06-3.13-.17-1.09-.11-1.84-.31-2.24-.58-.18.32-.62.92-1.33,1.8-.7.88-1.56,1.94-2.58,3.16-1.02,1.22-2.07,2.47-3.16,3.74-1.09,1.27-2.11,2.46-3.06,3.57-.95,1.11-1.72,1.98-2.31,2.62-.59.68-1.39,1.48-2.41,2.41-1.02.93-2.04,1.76-3.06,2.48-1.02.73-1.87,1.09-2.55,1.09-.32,0-.51-.07-.58-.2-.07-.14-.1-.23-.1-.27.73,0,1.8-.51,3.23-1.53,1.43-1.02,3.25-2.8,5.47-5.34,2.67-3.08,5.2-6.4,7.58-9.96,2.38-3.56,4.52-7.26,6.42-11.11h.07c.59,0,.88.57.88,1.7,0,1.04-.36,2.27-1.09,3.67-.18.32-.45.75-.82,1.29.91.18,1.81.31,2.72.37.91.07,1.74.1,2.51.1.63,0,1.22-.02,1.77-.07.54-.04.97-.11,1.29-.2.41,0,.62.08.65.24.02.16-.01.28-.1.37-.18.18-.56.59-1.12,1.22-.57.64-1.2,1.33-1.9,2.07-.7.75-1.35,1.45-1.94,2.11-.59.66-1.02,1.14-1.29,1.46-1.4,1.68-2.8,3.51-4.18,5.51-1.38,1.99-2.34,3.78-2.89,5.37-.18.41-.27.79-.27,1.16,0,.64.29.95.88.95.63,0,1.43-.37,2.38-1.12.95-.75,1.91-1.62,2.89-2.62.97-1,1.76-1.84,2.34-2.51.18,0,.27.14.27.41,0,.41-.09.73-.27.95-2.08,2.45-3.77,4.11-5.06,5-1.29.88-2.48,1.33-3.57,1.33Z"/>
        <path class="cls-2" d="M119.97,47.54c-2.08,0-3.56-.45-4.42-1.36s-1.29-2.13-1.29-3.67.42-3.07,1.26-4.72c.84-1.65,1.89-3.23,3.16-4.72.77-.91,1.72-1.86,2.85-2.85,1.13-1,2.36-1.94,3.67-2.82,1.31-.88,2.62-1.61,3.91-2.17,1.29-.57,2.44-.85,3.43-.85.54,0,1.04.13,1.5.37.45.25.68.78.68,1.6,0,1.13-.54,2.21-1.63,3.23-1.09,1.02-2.31,1.96-3.67,2.82-1.54,1-3.15,1.84-4.83,2.51-1.68.68-3.13,1.2-4.35,1.56-.68,1.09-1.22,2.2-1.63,3.33-.41,1.13-.61,2.24-.61,3.33,0,1.18.28,1.98.85,2.41.57.43,1.23.65,2,.65,1.4,0,2.68-.33,3.84-.99,1.16-.66,2.23-1.51,3.23-2.55,1-1.04,1.95-2.08,2.85-3.13.18,0,.27.14.27.41,0,.41-.09.73-.27.95-.91,1.04-1.89,2.08-2.96,3.13-1.07,1.04-2.23,1.89-3.5,2.55-1.27.66-2.72.99-4.35.99ZM121.06,35.51c1.18-.41,2.57-.97,4.18-1.7,1.61-.72,3.02-1.52,4.25-2.38.27-.18.75-.55,1.43-1.12.68-.57,1.31-1.2,1.9-1.9.59-.7.88-1.33.88-1.87,0-.72-.36-1.09-1.09-1.09-.77,0-1.64.34-2.62,1.02-.97.68-1.76,1.27-2.34,1.77-1.09,1-2.22,2.11-3.4,3.33-1.18,1.22-2.24,2.54-3.19,3.94Z"/>
        <path class="cls-2" d="M136.42,47.54c-.91,0-1.78-.09-2.62-.27-.84-.18-1.57-.5-2.21-.95-.5-.36-.92-.86-1.26-1.5-.34-.63-.51-1.45-.51-2.45,0-1.18.28-2.08.85-2.72.57-.63,1.17-.95,1.8-.95.5-.63,1.18-1.53,2.04-2.68.86-1.16,1.82-2.44,2.89-3.84,1.06-1.4,2.16-2.82,3.3-4.25,1.13-1.43,2.2-2.71,3.19-3.84.63-.63,1.3-1.31,2-2.04.7-.72,1.5-1.35,2.38-1.87.88-.52,1.82-.78,2.82-.78.77,0,1.33.18,1.67.54.34.36.51.79.51,1.29,0,.27-.07.52-.2.75-.5-.09-1.2-.01-2.11.24-.91.25-1.9.69-2.99,1.33-1.18.73-2.38,1.63-3.6,2.72-.05.54-.1,1.37-.17,2.48-.07,1.11-.15,2.36-.24,3.74-.09,1.38-.24,2.76-.44,4.15-.2,1.38-.47,2.59-.78,3.64-.23.73-.59,1.53-1.09,2.41-.5.88-1.17,1.7-2.01,2.45-.84.75-1.87,1.26-3.09,1.53,1.63,0,2.99-.25,4.08-.75,1.09-.5,2.01-1.08,2.75-1.73.75-.66,1.35-1.19,1.8-1.6.36-.36.86-.88,1.5-1.56.63-.68,1.09-1.18,1.36-1.5.18,0,.27.14.27.41,0,.41-.09.73-.27.95-1.9,2.04-3.49,3.53-4.76,4.49-1.13.86-2.29,1.44-3.47,1.73-1.18.29-2.31.44-3.4.44ZM134.04,46.25c.77,0,1.48-.31,2.14-.92.66-.61,1.26-1.34,1.8-2.17.54-.84.97-1.62,1.29-2.34.5-1.09,1.02-2.47,1.56-4.15.54-1.68,1.06-3.39,1.56-5.13.5-1.74.91-3.25,1.22-4.52-1.27,1.22-2.53,2.56-3.77,4.01-1.25,1.45-2.39,2.83-3.43,4.15-1.04,1.31-1.9,2.4-2.58,3.26-.59.77-1.04,1.59-1.36,2.45-.32.86-.48,1.68-.48,2.45,0,.86.18,1.56.54,2.11.36.54.86.82,1.5.82Z"/>
      </g>
    </g>
  </g>
</svg>